<?xml version="1.0" standalone="no"?>
<!DOCTYPE svg PUBLIC "-//W3C//DTD SVG 20010904//EN"
 "http://www.w3.org/TR/2001/REC-SVG-20010904/DTD/svg10.dtd">
<svg version="1.0" xmlns="http://www.w3.org/2000/svg"
 width="360.000000pt" height="360.000000pt" viewBox="0 0 360.000000 360.000000"
 preserveAspectRatio="xMidYMid meet">
<metadata>
Created by potrace 1.14, written by Peter Selinger 2001-2017
</metadata>
<g transform="translate(0.000000,360.000000) scale(0.100000,-0.100000)"
fill="#000000" stroke="none">
<path d="M0 1800 l0 -1800 713 1 c560 0 725 3 772 14 35 8 49 14 33 14 -48 2
-291 69 -383 106 -528 213 -920 655 -1065 1200 -38 141 -60 287 -60 398 l0 87
138 -1 c75 -1 162 -4 192 -7 66 -8 72 -22 39 -89 -34 -71 -31 -144 9 -211 17
-29 35 -64 38 -77 6 -26 143 -175 160 -175 5 0 45 -34 89 -76 44 -42 99 -84
122 -95 23 -11 45 -24 48 -29 3 -6 13 -10 21 -10 8 0 28 -9 43 -21 16 -11 61
-32 102 -46 42 -14 88 -38 108 -56 20 -18 68 -45 106 -61 39 -16 77 -35 86
-43 8 -7 21 -13 27 -13 7 0 38 -13 70 -29 64 -32 115 -51 151 -56 14 -2 41
-10 60 -18 62 -26 75 -30 106 -34 16 -2 68 -19 115 -38 163 -66 235 -84 354
-91 53 -3 85 -9 97 -20 17 -15 35 -15 224 -4 10 0 24 5 30 10 6 5 33 10 60 11
28 1 59 8 70 16 25 17 58 16 119 -2 75 -23 105 -19 138 15 15 16 31 30 35 30
12 0 123 122 123 135 0 7 6 18 14 24 8 7 24 31 35 54 12 23 30 56 41 72 11 17
25 40 31 53 7 12 15 22 19 22 4 0 10 19 13 41 3 23 10 45 15 48 5 3 17 31 26
61 10 30 24 69 31 85 38 87 47 172 48 459 2 209 -1 289 -10 307 -7 13 -24 57
-36 97 -23 72 -26 75 -87 113 -63 41 -127 72 -167 84 -13 3 -23 11 -23 16 0 5
-8 9 -18 9 -10 0 -27 6 -38 14 -11 8 -37 17 -57 21 -20 4 -37 11 -37 16 0 5
-8 9 -19 9 -10 0 -25 7 -32 16 -16 19 -46 33 -104 49 -16 4 -34 11 -40 15 -5
4 -37 14 -70 24 -33 9 -73 23 -88 31 -16 8 -44 15 -64 15 -19 0 -47 6 -61 14
-138 70 -172 86 -208 95 -51 14 -74 6 -74 -23 0 -18 11 -25 58 -41 31 -10 64
-25 73 -32 8 -7 20 -13 26 -13 6 0 16 -6 22 -14 16 -19 146 -64 211 -71 30 -4
65 -13 77 -21 12 -8 33 -14 47 -14 25 0 163 -65 181 -85 6 -7 38 -17 71 -23
58 -10 87 -21 211 -78 105 -50 176 -155 196 -289 20 -132 4 -602 -22 -628 -6
-6 -11 -23 -11 -38 0 -15 -7 -32 -15 -39 -8 -7 -15 -24 -15 -37 0 -14 -7 -41
-16 -61 -40 -93 -69 -150 -90 -182 -13 -19 -24 -43 -24 -52 0 -10 -4 -18 -8
-18 -5 0 -19 -20 -31 -45 -12 -25 -27 -45 -32 -45 -5 0 -9 -7 -9 -15 0 -8 -4
-15 -9 -15 -6 0 -16 -12 -23 -27 -7 -15 -21 -29 -31 -31 -10 -2 -34 -19 -55
-38 -48 -44 -88 -45 -133 -5 -23 22 -37 28 -48 21 -17 -9 -63 -4 -96 10 -11 5
-41 11 -67 15 -27 3 -48 10 -48 15 0 4 -24 11 -52 15 -52 6 -76 14 -131 41
-16 8 -48 14 -72 14 -24 0 -46 4 -49 9 -3 4 -34 11 -68 14 -35 3 -71 9 -81 12
-10 4 -17 2 -17 -4 0 -6 7 -11 15 -11 8 0 23 -4 33 -9 30 -16 56 -24 74 -22 9
1 19 -3 23 -9 3 -5 20 -10 36 -10 16 0 45 -6 63 -14 18 -7 53 -17 77 -21 24
-4 46 -11 49 -16 3 -5 27 -10 53 -11 26 -2 49 -9 52 -15 2 -7 17 -13 33 -13
16 0 35 -7 42 -15 11 -13 10 -18 -6 -29 -41 -30 -216 -37 -293 -11 -28 9 -88
21 -134 25 -92 10 -171 30 -189 48 -7 7 -27 12 -45 12 -19 0 -51 9 -73 20 -22
11 -51 20 -65 20 -14 0 -25 5 -25 10 0 6 -9 10 -21 10 -12 0 -35 6 -52 13 -48
20 -127 45 -169 52 -21 4 -38 11 -38 16 0 5 -11 9 -24 9 -13 0 -29 7 -36 15
-11 13 -76 47 -125 65 -38 14 -120 54 -132 64 -33 29 -43 36 -52 36 -5 0 -11
6 -14 14 -3 8 -24 17 -46 21 -23 4 -43 11 -47 16 -3 5 -12 9 -20 9 -40 0 -244
119 -244 142 0 4 -7 8 -15 8 -8 0 -15 8 -15 18 0 19 -54 72 -75 72 -20 0 -165
149 -165 169 0 4 -14 34 -31 67 -25 48 -31 70 -29 118 1 64 23 131 51 159 10
9 21 17 24 17 3 0 22 17 43 37 51 50 94 83 110 83 18 0 16 -75 -3 -90 -15 -12
-21 -61 -9 -73 4 -4 8 -23 10 -44 16 -193 49 -288 136 -393 16 -19 38 -45 48
-58 46 -56 153 -123 295 -187 33 -15 76 -34 95 -42 19 -9 51 -24 70 -34 19 -9
55 -23 80 -30 25 -7 47 -16 50 -19 3 -3 34 -14 70 -23 113 -28 168 -45 189
-57 12 -6 25 -8 30 -6 5 3 21 -1 37 -9 15 -7 32 -12 36 -8 5 3 15 -3 22 -13
10 -12 15 -14 20 -5 6 9 11 9 19 -2 7 -7 32 -21 57 -31 25 -10 54 -22 65 -27
48 -19 65 -21 65 -4 0 8 -8 18 -17 21 -54 18 -130 50 -143 60 -8 6 -21 9 -28
7 -7 -3 -25 3 -40 13 -15 10 -38 17 -51 15 -24 -3 -34 0 -109 38 -24 11 -54
21 -66 21 -12 0 -27 5 -32 10 -6 6 -36 17 -69 25 -32 9 -75 24 -94 35 -32 17
-122 58 -176 80 -37 15 -90 41 -134 65 -24 14 -52 25 -62 25 -9 0 -28 13 -41
29 -13 15 -37 36 -54 47 -35 22 -74 56 -74 66 0 4 -13 22 -30 40 -16 18 -30
38 -30 45 0 6 -7 19 -16 28 -24 23 -74 228 -74 302 0 101 16 155 58 195 49 48
110 88 133 88 10 0 22 6 26 13 9 14 115 87 153 104 8 4 21 13 28 20 16 16 74
17 89 2 5 -5 25 -18 44 -27 29 -15 35 -23 39 -62 4 -40 8 -45 30 -45 40 0 48
41 20 99 -14 27 -30 46 -40 46 -9 0 -33 17 -52 38 -67 71 -98 88 -178 100 -60
9 -124 -10 -142 -42 -16 -28 1 -36 82 -36 56 0 79 -4 83 -13 7 -19 -4 -34 -33
-46 -28 -12 -63 -33 -70 -42 -11 -14 -76 -49 -90 -49 -8 0 -27 -11 -41 -24
-15 -14 -44 -26 -72 -30 -25 -4 -49 -11 -52 -17 -4 -5 -30 -20 -58 -33 -30
-14 -86 -56 -132 -100 -44 -41 -84 -76 -88 -76 -5 0 -11 9 -14 20 -4 13 -14
20 -32 21 -14 0 -42 2 -61 4 -19 3 -97 6 -172 7 l-138 3 0 45 c0 68 27 231 56
344 30 112 106 316 112 298 2 -7 23 -12 46 -12 63 0 99 -48 61 -80 -8 -7 -15
-21 -15 -31 0 -27 86 -113 106 -105 9 3 18 6 20 6 2 0 4 13 4 28 0 15 5 33 11
39 9 9 9 23 -1 57 -7 25 -10 51 -7 59 6 17 212 23 222 7 4 -6 9 -30 12 -52 5
-46 19 -78 33 -78 6 0 19 -9 30 -20 24 -24 34 -20 56 22 26 50 0 104 -30 63
-15 -20 -53 -9 -62 17 -8 25 10 38 54 38 18 0 43 7 56 15 19 13 51 15 173 11
156 -4 193 -13 193 -46 0 -26 16 -26 23 0 4 17 14 20 57 20 34 0 57 5 68 16
16 17 18 17 172 -6 53 -8 91 -9 130 -1 30 6 138 13 239 16 186 6 248 19 238
48 -5 15 -170 16 -407 3 -217 -12 -256 -11 -440 9 -19 2 -48 -2 -65 -10 -19
-8 -55 -12 -100 -10 -127 7 -203 7 -214 0 -6 -3 -17 -3 -23 2 -7 4 -24 9 -38
10 -14 1 -42 5 -63 9 -26 4 -44 2 -61 -9 -29 -20 -88 -21 -290 -8 -124 8 -163
8 -175 -2 -8 -6 4 24 28 68 268 500 752 841 1317 929 80 13 6 14 -723 15
l-813 1 0 -1800z"/>
<path d="M2074 3584 c784 -122 1388 -726 1510 -1510 13 -80 14 -6 15 719 l1
807 -807 -1 c-725 -1 -799 -2 -719 -15z"/>
<path d="M1156 2414 c-22 -22 -20 -43 7 -53 41 -15 93 19 76 50 -12 23 -61 25
-83 3z"/>
<path d="M595 2240 c-3 -5 -12 -7 -19 -4 -7 3 -16 -2 -19 -10 -4 -9 -14 -12
-26 -9 -12 3 -21 1 -21 -5 0 -14 82 -12 93 2 6 8 10 7 14 -1 6 -16 45 -17 61
-1 20 20 13 27 -23 21 -23 -4 -35 -2 -35 6 0 13 -17 15 -25 1z"/>
<path d="M765 2240 c-7 -12 2 -12 30 0 19 8 19 9 -2 9 -12 1 -25 -3 -28 -9z"/>
<path d="M454 2229 c-3 -6 -1 -16 5 -22 8 -8 11 -5 11 11 0 24 -5 28 -16 11z"/>
<path d="M2770 2035 c-17 -24 -33 -58 -37 -75 -3 -18 -12 -34 -19 -37 -8 -3
-14 -9 -14 -14 0 -5 -8 -17 -17 -27 -10 -10 -25 -29 -33 -42 -8 -12 -21 -28
-27 -36 -7 -7 -13 -15 -13 -18 0 -4 -11 -24 -25 -46 -14 -22 -25 -48 -25 -58
0 -25 37 -72 57 -72 16 0 52 -38 53 -56 0 -13 63 -74 76 -74 6 0 19 -9 29 -20
23 -25 82 -27 122 -3 53 30 73 73 73 157 0 41 -4 77 -9 81 -5 3 -17 29 -25 58
-8 28 -24 70 -36 92 -11 21 -20 45 -20 51 0 6 -11 19 -24 27 -19 13 -27 13
-40 4 -15 -11 -14 -18 13 -72 34 -67 38 -84 16 -61 -8 8 -15 19 -15 25 0 6
-19 11 -44 11 -25 0 -47 4 -51 9 -7 13 27 80 41 81 7 0 15 12 19 28 3 15 17
41 31 59 32 42 32 73 -1 73 -17 0 -32 -12 -55 -45z m-54 -328 c19 -45 26 -52
53 -55 49 -5 80 24 81 76 0 30 4 42 15 42 9 0 15 -9 15 -23 0 -13 7 -39 16
-57 18 -36 15 -115 -7 -162 -10 -23 -19 -28 -48 -28 -29 0 -41 7 -61 35 -14
19 -28 35 -32 35 -5 0 -17 9 -28 20 -11 11 -26 20 -32 20 -18 0 -48 56 -48 87
0 24 39 77 49 67 3 -3 15 -28 27 -57z"/>
<path d="M1495 2030 c-11 -18 4 -45 44 -83 22 -21 43 -47 46 -58 8 -23 -23
-109 -45 -126 -23 -17 -19 -167 6 -222 11 -23 26 -41 35 -41 9 0 22 -7 29 -15
20 -24 88 -19 115 8 12 12 40 38 61 58 22 20 51 50 67 68 15 17 32 31 37 31 6
0 10 10 10 23 0 43 -12 67 -36 73 -13 3 -24 10 -24 15 0 6 -20 18 -43 28 -24
11 -53 30 -63 43 -10 13 -33 32 -50 42 -16 10 -43 39 -59 65 -16 25 -37 52
-47 59 -9 7 -24 19 -32 27 -17 17 -42 20 -51 5z m159 -278 c-19 -62 -18 -89 5
-102 29 -15 32 -14 79 30 34 32 46 38 65 31 39 -14 32 -44 -20 -90 -26 -24
-63 -57 -80 -73 -25 -23 -38 -29 -57 -24 -37 9 -53 31 -67 90 -11 50 -10 56
15 105 14 29 26 59 26 66 0 19 33 37 41 23 4 -5 0 -31 -7 -56z"/>
<path d="M1840 1897 c0 -14 7 -28 16 -31 12 -5 15 0 12 21 -4 35 -28 43 -28
10z"/>
<path d="M1926 1824 c-9 -23 -8 -24 22 -24 35 0 45 9 31 27 -15 18 -46 17 -53
-3z"/>
<path d="M3586 1554 c-9 -92 -67 -311 -110 -416 -219 -541 -658 -927 -1221
-1073 -71 -19 -125 -35 -120 -35 6 -1 46 -6 90 -12 119 -17 1002 -16 1078 1
47 11 69 11 110 1 29 -7 82 -14 120 -17 l67 -5 0 811 c0 446 -2 811 -4 811 -2
0 -6 -30 -10 -66z"/>
<path d="M2750 1216 c-113 -99 -160 -186 -107 -200 39 -10 48 -7 62 27 7 18
23 41 34 51 12 11 21 25 21 32 0 7 6 17 13 21 19 11 29 69 14 81 -8 7 -20 4
-37 -12z"/>
<path d="M2013 1169 c-6 -6 -9 -18 -6 -27 5 -18 94 -92 110 -92 5 0 28 -16 51
-36 46 -39 85 -43 90 -9 2 14 -10 31 -37 53 -22 18 -45 32 -50 32 -6 0 -11 5
-11 10 0 6 -5 10 -12 10 -7 0 -26 13 -43 29 -34 32 -76 46 -92 30z"/>
<path d="M1963 3 c15 -2 39 -2 55 0 15 2 2 4 -28 4 -30 0 -43 -2 -27 -4z"/>
<path d="M3338 3 c7 -3 16 -2 19 1 4 3 -2 6 -13 5 -11 0 -14 -3 -6 -6z"/>
</g>
</svg>
